# xmcd
#
# Track frame offsets:
#	150
#	16872
#	34795
#	54111
#	71280
#	88110
#	103735
#	122975
#	137730
#	152007
#	169321
#	183028
#	197219
#	212294
#	226624
#	241369
#	258395
#	273033
#
# Disc length: 3870 seconds
#
# Revision: 1
# Processed by: cddbd v1.5.2PL0 Copyright (c) Steve Scherf et al.
# Submitted via: audiograbber 1.83.01
#
DISCID=e50f1c12
DTITLE=Various Artist - Country Hits 2015
DYEAR=2044
DGENRE=Country
TTITLE0=Florida Georgia Line - This Is How We Roll
TTITLE1=Keith Urban - Somewhere In My Car
TTITLE2=Tim McGraw - Southern Girl
TTITLE3=Luke Bryan - Play It Again
TTITLE4=Brantley Gilbert - Bottoms Up
TTITLE5=Rascal Flatts - Rewind
TTITLE6=Dierks Bentley - Drunk On A Plane
TTITLE7=Sam Hunt - Leave The Night On
TTITLE8=Thomas Rhett - Get Me Some Of That
TTITLE9=Jess Moskaluke - Used
TTITLE10=The Road Hammers (ft. Jeffrey Steele) - Mud
TTITLE11=Tim Hicks - Here Comes The Thunder
TTITLE12=Eli Young Band - Dust
TTITLE13=Chad Brownlee - When The Lights Go Down
TTITLE14=Dallas Smith - A Girl Like You
TTITLE15=Eric Paslay - Song About A Girl
TTITLE16=Bobby Wills - Never Didn't Love You
TTITLE17=David Nail - Kiss You Tonight
EXTD=
EXTT0=
EXTT1=
EXTT2=
EXTT3=
EXTT4=
EXTT5=
EXTT6=
EXTT7=
EXTT8=
EXTT9=
EXTT10=
EXTT11=
EXTT12=
EXTT13=
EXTT14=
EXTT15=
EXTT16=
EXTT17=
PLAYORDER=
